#N struct 1324-pad float x float y float lx float ly float cx float
cy float rx float ry float ex float ey;
#N canvas 191 83 1734 894 12;
#X declare -lib cyclone -path zexy;
#X declare -lib maxlib -path maxlib;
#X declare -path else;
#X declare -path iemguts;
#X declare -path zexy;
#X declare -path purest_json;
#X obj 408 154 fluid.dataset xydata;
#X obj 599 151 fluid.dataset synthparams;
#X obj 1441 708 declare -lib cyclone -path zexy;
#X obj 1442 738 declare -lib maxlib -path maxlib;
#X obj 1441 680 declare -path else;
#X obj 1131 196 else/display;
#X obj 942 232 cnv 15 98 68 empty empty empty 20 12 0 14 -233017 -66577
0;
#N canvas 0 23 450 278 (subpatch) 0;
#X array \$0-buffer 6 float 3;
#A 0 0.299213 0.708661 0.133858 0.692913 0.84252 0.952756;
#X coords 0 1 6 0 100 70 1 0 0;
#X restore 941 231 graph;
#X obj 1122 170 else/buffer \$0-buffer;
#X floatatom 1102 785 5 0 0 0 - - -;
#X floatatom 1143 785 5 0 0 0 - - -;
#X floatatom 1185 785 5 0 0 0 - - -;
#X floatatom 1226 785 5 0 0 0 - - -;
#X floatatom 1267 785 5 0 0 0 - - -;
#X floatatom 1309 786 5 0 0 0 - - -;
#X obj 1442 793 declare -path iemguts;
#X obj 1443 823 declare -path zexy;
#X obj 378 660 pack f f;
#X obj 378 701 else/display;
#X obj 457 243 cnv 15 98 68 empty empty empty 20 12 0 14 -233017 -66577
0;
#N canvas 0 23 627 402 (subpatch) 0;
#X array xybuf 2 float 3;
#A 0 0.711547 0;
#X coords 0 1 2 0 100 70 1 0 0;
#X restore 456 242 graph;
#X obj 679 239 cnv 15 98 68 empty empty empty 20 12 0 14 -233017 -66577
0;
#N canvas 0 23 627 402 (subpatch) 0;
#X array synthparamsbuf 6 float 3;
#A 0 0.299213 0.708661 0.133858 0.692913 0.84252 0.952756;
#X coords 0 1 6 0 100 70 1 0 0;
#X restore 678 238 graph;
#X obj 599 3 bng 15 250 50 0 empty empty empty 17 7 0 10 -262144 -1
-1;
#X obj 599 26 counter;
#X obj 599 53 list append;
#X obj 573 50 else/display;
#X msg 685 52 example;
#X obj 276 152 else/display;
#X obj 796 151 else/display;
#X obj 677 201 buffer synthparamsbuf;
#X obj 456 204 buffer xybuf;
#X msg 408 90 addpoint \$1 xybuf;
#X msg 599 88 addpoint \$1 synthparamsbuf;
#X obj 438 366 fluid.bufcompose samps 2;
#X msg 416 125 print;
#X msg 466 483 fit xydata synthparams;
#X obj 857 594 else/display;
#X obj 1163 473 cnv 15 200 140 empty empty empty 20 12 0 14 -4034 -66577
0;
#N canvas 0 23 627 402 (subpatch) 0;
#X array predictions 6 float 3;
#A 0 0.293021 0.570688 0.391855 0.327381 0.222623 0.274084;
#X coords 0 1 6 0 200 140 2 0 0;
#X restore 1162 473 graph;
#X obj 989 686 buffer predictions;
#X obj 440 605 print;
#X obj 638 606 print;
#X obj 699 601 else/display;
#X obj 646 647 else/display;
#X obj 990 666 bng 15 250 50 0 empty empty empty 17 7 0 10 -262144
-1 -1;
#X obj 857 635 bng 15 250 50 0 empty empty empty 17 7 0 10 -262144
-1 -1;
#X msg 439 437 predictpoint xybuf predictions;
#X obj 957 568 bng 15 250 50 0 empty empty empty 17 7 0 10 -262144
-1 -1;
#X obj 989 611 array get predictions;
#X obj 989 641 else/display;
#X obj 439 410 bng 15 250 50 0 empty empty empty 17 7 0 10 -262144
-1 -1;
#X obj 1126 754 unpack f f f f f f;
#X obj 1253 241 cnv 15 200 140 empty empty empty 20 12 0 14 -191407
-66577 0;
#N canvas 0 23 450 278 (subpatch) 0;
#X array final 6 float 3;
#A 0 0.299213 0.708661 0.133858 0.692913 0.84252 0.952756;
#X coords 0 1 6 0 200 140 1 0 0;
#X restore 1253 240 graph;
#X obj 1442 767 declare -path purest_json;
#X obj 682 456 metro 100;
#X obj 682 434 tgl 15 0 empty empty empty 17 7 0 10 -262144 -1 -1 0
1;
#X floatatom 742 432 5 0 0 0 - - -;
#X text 472 405 PREDICT;
#X msg 1400 112 0.5 0.63 0.51 0.73 0.45 0.55;
#X msg 1167 113 0.25 0.27 0.29 0.32 0.37 0.39;
#X msg 1165 56 0.64 0.66 0.71 0.73 0.74 0.66;
#X obj 1289 7 bng 15 250 50 0 empty empty empty 17 7 0 10 -262144 -1
-1;
#X text 1311 7 RANDOM;
#X obj 1169 369 bng 15 250 50 0 empty empty empty 17 7 0 10 -262144
-1 -1;
#X obj 1122 240 else/buffer final;
#X text 642 482 < MINIMIZE LOSS;
#X obj 1169 340 metro 100;
#X obj 1169 321 tgl 15 0 empty empty empty 17 7 0 10 -262144 -1 -1
0 1;
#X floatatom 106 564 5 0 0 0 - - toxsetter;
#X floatatom 312 555 5 0 0 0 - - toysetter;
#X floatatom 97 219 5 -100 100 0 - xsetter -;
#X floatatom 360 220 5 -100 100 0 - ysetter -;
#X obj 97 245 xy-pad;
#X obj 230 218 t b f;
#X obj 631 365 fluid.bufcompose synthparams samps 6;
#X obj 440 535 fluid.mlpregressor my-network -hidden 3 -activation
1 -outputactivation 1 -batchsize 2 -maxiter 1000 -learnrate 0.1 -validation
0 -momentum 0.9;
#X msg 796 175 clear;
#X text 1188 318 TURN OFF;
#X obj 97 587 scale_abs -100 100 0 1;
#X floatatom 97 615 5 0 0 0 - - -;
#X obj 264 588 scale_abs -100 100 0 1;
#X floatatom 264 612 5 0 0 0 - - -;
#X obj 1102 816 s p1;
#X obj 1143 816 s p2;
#X obj 1185 816 s p3;
#X obj 1267 816 s p5;
#X obj 1226 816 s p4;
#X obj 1309 816 s p6;
#X obj 1079 903 scale_abs 0 1 2 10;
#N canvas 839 23 410 439 random1 0;
#X obj 100 130 random 2;
#X obj 152 193 sel 0 1;
#X floatatom 100 161 5 0 0 0 - - -;
#X obj 152 225 bng 15 250 50 0 empty empty empty 17 7 0 10 -262144
-1 -1;
#X obj 194 225 bng 15 250 50 0 empty empty empty 17 7 0 10 -262144
-1 -1;
#X msg 152 253 -1;
#X msg 194 253 1;
#X obj 101 282 f;
#X obj 155 282 +;
#X obj 100 101 metro 100;
#X floatatom 101 312 5 0 0 0 - - -;
#X obj 100 193 t b f;
#X floatatom 131 77 5 0 0 0 - - -;
#X obj 76 67 inlet;
#X obj 98 342 outlet;
#X obj 178 69 inlet;
#X connect 0 0 2 0;
#X connect 1 0 3 0;
#X connect 1 1 4 0;
#X connect 2 0 11 0;
#X connect 3 0 5 0;
#X connect 4 0 6 0;
#X connect 5 0 8 1;
#X connect 6 0 8 1;
#X connect 7 0 8 0;
#X connect 7 0 10 0;
#X connect 8 0 7 1;
#X connect 9 0 0 0;
#X connect 10 0 14 0;
#X connect 11 0 7 0;
#X connect 11 1 1 0;
#X connect 12 0 9 1;
#X connect 13 0 9 0;
#X connect 15 0 7 0;
#X restore 14 318 pd random1;
#X obj 14 297 tgl 15 0 empty empty empty 17 7 0 10 -262144 -1 -1 0
1;
#X floatatom 14 348 5 0 0 0 - - -;
#X msg 15 401 60;
#X obj 15 375 loadbang;
#X msg 15 423 0;
#X msg 15 469 -80;
#X msg 15 446 -30;
#X msg 1348 85 0 1 0 0 0 0;
#X msg 1403 58 0.055 0.377 0.677 0.677 0.929 0.763;
#X msg 816 103 read /Users/kaia/Desktop/01Aobject.json;
#X msg 816 82 write /Users/kaia/Desktop/01Aobject.json;
#X msg 817 130 write /Users/kaia/Desktop/01Bobject.json;
#X msg 817 151 read /Users/kaia/Desktop/01Bobject.json;
#X text 850 59 save and open numbers database;
#X obj 1289 27 pd_random_par6;
#X text 1263 753 output parameters;
#X text 1167 25 TRAIN examples;
#X text 619 -1 ADD point to database;
#X text 852 530 NEURAl network;
#X text 1463 241 or train by hand;
#X connect 8 0 5 0;
#X connect 8 0 66 0;
#X connect 9 0 84 0;
#X connect 10 0 85 0;
#X connect 11 0 86 0;
#X connect 12 0 88 0;
#X connect 13 0 87 0;
#X connect 14 0 89 0;
#X connect 17 0 18 0;
#X connect 17 0 31 0;
#X connect 18 0 51 0;
#X connect 23 0 24 0;
#X connect 24 0 25 0;
#X connect 25 0 26 0;
#X connect 25 0 32 0;
#X connect 25 0 33 0;
#X connect 27 0 25 1;
#X connect 32 0 28 0;
#X connect 32 0 0 0;
#X connect 33 0 29 0;
#X connect 33 0 1 0;
#X connect 35 0 0 0;
#X connect 35 0 1 0;
#X connect 36 0 77 0;
#X connect 37 0 46 0;
#X connect 45 0 40 0;
#X connect 46 0 48 0;
#X connect 47 0 77 0;
#X connect 48 0 49 0;
#X connect 48 0 45 0;
#X connect 49 0 50 0;
#X connect 50 0 52 0;
#X connect 50 0 40 0;
#X connect 51 0 47 0;
#X connect 52 0 9 0;
#X connect 52 1 10 0;
#X connect 52 2 11 0;
#X connect 52 3 12 0;
#X connect 52 4 13 0;
#X connect 52 5 14 0;
#X connect 56 0 36 0;
#X connect 57 0 56 0;
#X connect 58 0 56 1;
#X connect 60 0 8 0;
#X connect 61 0 8 0;
#X connect 62 0 8 0;
#X connect 63 0 106 0;
#X connect 65 0 66 0;
#X connect 66 0 52 0;
#X connect 66 0 30 0;
#X connect 68 0 65 0;
#X connect 69 0 68 0;
#X connect 72 0 74 0;
#X connect 73 0 75 0;
#X connect 74 0 70 0;
#X connect 74 0 80 0;
#X connect 74 2 71 0;
#X connect 74 2 82 0;
#X connect 75 0 74 0;
#X connect 75 1 74 1;
#X connect 77 0 41 0;
#X connect 77 0 44 0;
#X connect 77 1 42 0;
#X connect 77 1 43 0;
#X connect 77 2 37 0;
#X connect 78 0 1 0;
#X connect 78 0 29 0;
#X connect 80 0 81 0;
#X connect 81 0 17 0;
#X connect 82 0 83 0;
#X connect 91 0 93 0;
#X connect 92 0 91 0;
#X connect 93 0 74 0;
#X connect 94 0 91 1;
#X connect 95 0 94 0;
#X connect 96 0 91 1;
#X connect 97 0 91 1;
#X connect 98 0 91 1;
#X connect 99 0 8 0;
#X connect 100 0 8 0;
#X connect 101 0 0 0;
#X connect 102 0 0 0;
#X connect 103 0 1 0;
#X connect 104 0 1 0;
#X connect 106 0 8 0;
#X coords 0 -1 1 1 200 60 1 0 0;
