#N canvas 299 23 591 295 12;
#X floatatom 152 163 5 0 0 0 - - -;
#X floatatom 107 164 5 0 0 0 - - -;
#X floatatom 245 164 5 0 0 0 - - -;
#X floatatom 200 163 5 0 0 0 - - -;
#X floatatom 338 162 5 0 0 0 - - -;
#X floatatom 292 162 5 0 0 0 - - -;
#X msg 107 224 \$1 \$2 \$3 \$4 \$5 \$6;
#X obj 107 197 pack f f f f f f;
#X floatatom 36 107 5 0 0 0 - - -;
#X obj 36 78 random 127;
#X floatatom 117 106 5 0 0 0 - - -;
#X obj 117 78 random 127;
#X floatatom 200 106 5 0 0 0 - - -;
#X obj 200 78 random 127;
#X floatatom 282 107 5 0 0 0 - - -;
#X obj 282 78 random 127;
#X floatatom 363 106 5 0 0 0 - - -;
#X obj 363 78 random 127;
#X floatatom 446 106 5 0 0 0 - - -;
#X obj 446 78 random 127;
#X obj 227 13 inlet;
#X obj 107 256 outlet;
#X obj 36 134 / 127;
#X obj 117 131 / 127;
#X obj 282 131 / 127;
#X obj 363 131 / 127;
#X obj 446 133 / 127;
#X obj 200 130 / 127;
#X connect 0 0 7 1;
#X connect 1 0 7 0;
#X connect 2 0 7 3;
#X connect 3 0 7 2;
#X connect 4 0 7 5;
#X connect 5 0 7 4;
#X connect 6 0 21 0;
#X connect 7 0 6 0;
#X connect 8 0 22 0;
#X connect 9 0 8 0;
#X connect 10 0 23 0;
#X connect 11 0 10 0;
#X connect 12 0 27 0;
#X connect 13 0 12 0;
#X connect 14 0 24 0;
#X connect 15 0 14 0;
#X connect 16 0 25 0;
#X connect 17 0 16 0;
#X connect 18 0 26 0;
#X connect 19 0 18 0;
#X connect 20 0 9 0;
#X connect 20 0 11 0;
#X connect 20 0 13 0;
#X connect 20 0 15 0;
#X connect 20 0 17 0;
#X connect 20 0 19 0;
#X connect 22 0 1 0;
#X connect 23 0 0 0;
#X connect 24 0 2 0;
#X connect 25 0 5 0;
#X connect 26 0 4 0;
#X connect 27 0 3 0;
