#N struct 1020-pad float x float y float lx float ly float cx float
cy float rx float ry float ex float ey;
#N canvas 173 294 1142 612 10;
#X obj -2 -169 f \$0;
#X obj -2 -148 t b f f;
#X msg -2 -218 bang;
#X obj 217 -70 pointer;
#X msg 216 -131 \; pd-\$1-pad-area clear;
#X obj -2 -195 t b b;
#X obj -2 -243 loadbang;
#X symbolatom 418 -201 10 0 0 0 - - -;
#X floatatom 518 -116 5 0 0 0 - - -;
#X floatatom 611 -116 5 0 0 0 - - -;
#X obj 484 -200 unpack s p f;
#X obj 492 38 outlet;
#X obj 628 36 outlet;
#X obj 3 3 cnv 15 294 294 empty empty empty 20 12 0 14 -96896 -66577
0;
#N canvas 286 51 909 744 \$0-pad-area 0;
#X scalar 1020-pad 0 0 -68.0701 15.14 -64.0701 19.14 -60.0701 23.14
0 0 \;;
#X coords -110 109 109 -110 300 300 2 0 0;
#X restore 0 0 pd \$0-pad-area;
#X msg -2 -68 0 0 0 0 -4 -4 4 4 0 0;
#X floatatom 972 -42 5 -100 100 0 - - -;
#X floatatom 865 -114 5 -100 100 0 - - -;
#X obj 518 -174 t p p p p;
#X obj 865 -238 inlet;
#X obj 971 -238 inlet;
#X msg 217 -94 traverse pd-\$1-pad-area \, bang;
#X obj 251 -23 s \$0-gp;
#X obj 1057 33 r \$0-gp;
#X obj 424 -124 route click;
#X obj 424 -93 bng 15 250 50 0 empty empty empty 17 7 0 10 -262144
-1 -1;
#X obj 559 37 outlet;
#X obj 485 -241 struct \$0-pad float x float y float lx float ly float
cx float cy float rx float ry float ex float ey;
#X obj 518 -143 get \$0-pad cx cy;
#X obj 518 -34 set \$0-pad lx ly;
#X obj 632 -33 set \$0-pad rx ry;
#X obj -2 -40 append \$0-pad x y cx cy lx ly rx ry ex ey;
#X obj 882 62 set \$0-pad cx cy lx ly rx ry;
#X obj 972 -19 t b f f f;
#X obj 865 -91 t b f f f;
#X msg 164 -178 set 0 0 0 0 -4 -4 4 4 0 0;
#X obj 518 -62 - 4;
#X obj 564 -61 - 4;
#X obj 632 -61 + 4;
#X obj 678 -61 + 4;
#X obj 928 34 - 4;
#X obj 960 34 - 4;
#X obj 992 34 + 4;
#X obj 1023 34 + 4;
#X text 430 155 constrain to the bounds of -100 and 100;
#X obj 432 174 drawpolygon 990 1 -108 cy 108 cy;
#X obj 432 194 drawpolygon 990 1 cx -108 cx 108;
#X obj 431 127 filledpolygon 930 930 1 cx(-100:100) cy(-100:100) lx
ly rx ly rx ry lx ry lx ly;
#X obj 431 92 filledcurve 99 99 1 cx(-100:100) cy(-100:100) lx ly rx
ly rx ry lx ry lx ly;
#X obj 343 7 tgl 15 0 empty empty empty 17 7 0 10 -262144 -1 -1 1 1
;
#X obj 360 40 == 0;
#X obj 343 69 != 0;
#X obj 343 -21 loadbang;
#X obj 344 159 tgl 15 0 empty empty crosshairs 17 7 0 10 -262144 -1
-1 1 1;
#X text 5 314 Balwyn 04/2017;
#X text 60 -252 x/y is irrelevant so remains 0/0 \; cx/cy is the centre
of the cursor and is an offset of x/y that produces the output during
the 'change' event of the struct (the right side of an invisible rectangle
x \, y-cx \, cy) lx/ly and rx/ry are for the size of the cursor \;
ex/ey is not required here;
#X text 344 244 Notes: I have found that drawing the cursor from the
centre then out to a corner of the perimeter of the cursor and then
all the way around the perimeterachieves the best mouse response from
the scalar \; Using only a click and change event is enough to create
mouse output;
#X text 538 18 bang on click;
#X connect 0 0 1 0;
#X connect 1 0 15 0;
#X connect 1 1 21 0;
#X connect 1 2 4 0;
#X connect 2 0 5 0;
#X connect 3 0 31 10;
#X connect 5 0 0 0;
#X connect 5 1 35 0;
#X connect 6 0 2 0;
#X connect 8 0 11 0;
#X connect 8 0 36 0;
#X connect 8 0 38 0;
#X connect 9 0 12 0;
#X connect 9 0 37 0;
#X connect 9 0 39 0;
#X connect 10 0 7 0;
#X connect 10 1 18 0;
#X connect 15 0 31 0;
#X connect 16 0 33 0;
#X connect 16 0 12 0;
#X connect 17 0 34 0;
#X connect 17 0 11 0;
#X connect 18 0 28 0;
#X connect 18 1 29 2;
#X connect 18 2 30 2;
#X connect 19 0 17 0;
#X connect 20 0 16 0;
#X connect 21 0 3 0;
#X connect 23 0 32 6;
#X connect 24 0 25 0;
#X connect 25 0 26 0;
#X connect 27 0 10 0;
#X connect 27 0 24 0;
#X connect 28 0 8 0;
#X connect 28 1 9 0;
#X connect 31 0 22 0;
#X connect 33 0 32 0;
#X connect 33 1 32 1;
#X connect 33 2 41 0;
#X connect 33 3 43 0;
#X connect 34 0 16 0;
#X connect 34 1 32 0;
#X connect 34 2 40 0;
#X connect 34 3 42 0;
#X connect 35 0 15 0;
#X connect 36 0 29 0;
#X connect 37 0 29 1;
#X connect 38 0 30 0;
#X connect 39 0 30 1;
#X connect 40 0 32 2;
#X connect 41 0 32 3;
#X connect 42 0 32 4;
#X connect 43 0 32 5;
#X connect 49 0 50 0;
#X connect 49 0 51 0;
#X connect 50 0 48 0;
#X connect 51 0 47 0;
#X connect 52 0 49 0;
#X connect 53 0 45 0;
#X connect 53 0 46 0;
#X coords 0 0 1 1 300 300 2 0 0;
